<svg width="25" height="24" viewBox="0 0 25 24" fill="none" xmlns="http://www.w3.org/2000/svg">
<path d="M8.5 22C9.05228 22 9.5 21.5523 9.5 21C9.5 20.4477 9.05228 20 8.5 20C7.94772 20 7.5 20.4477 7.5 21C7.5 21.5523 7.94772 22 8.5 22Z" stroke="white" stroke-width="2" stroke-linecap="round" stroke-linejoin="round"/>
<path d="M19.5 22C20.0523 22 20.5 21.5523 20.5 21C20.5 20.4477 20.0523 20 19.5 20C18.9477 20 18.5 20.4477 18.5 21C18.5 21.5523 18.9477 22 19.5 22Z" stroke="white" stroke-width="2" stroke-linecap="round" stroke-linejoin="round"/>
<path d="M2.54999 2.05005H4.54999L7.20999 14.47C7.30757 14.9249 7.56066 15.3315 7.9257 15.6199C8.29074 15.9083 8.74489 16.0604 9.20999 16.05H18.99C19.4452 16.0493 19.8865 15.8933 20.241 15.6079C20.5956 15.3224 20.8421 14.9246 20.94 14.48L22.59 7.05005H5.61999" stroke="white" stroke-width="2" stroke-linecap="round" stroke-linejoin="round"/>
</svg>
